<?xml version="1.0" standalone="no"?>
<!DOCTYPE svg PUBLIC "-//W3C//DTD SVG 20010904//EN"
 "http://www.w3.org/TR/2001/REC-SVG-20010904/DTD/svg10.dtd">
<svg version="1.0" xmlns="http://www.w3.org/2000/svg"
 width="139.000000pt" height="139.000000pt" viewBox="0 0 139.000000 139.000000"
 preserveAspectRatio="xMidYMid meet">
<metadata>
Created by potrace 1.11, written by Peter Selinger 2001-2013
</metadata>
<g transform="translate(0.000000,139.000000) scale(0.100000,-0.100000)"
fill="#000000" stroke="none">
<path d="M617 1370 c-133 -34 -242 -133 -264 -239 -12 -59 -5 -160 16 -206 29
-65 130 -162 236 -225 281 -167 349 -248 348 -411 -1 -158 -88 -244 -253 -252
-172 -9 -312 111 -363 311 -7 29 -17 52 -23 50 -10 -3 -10 -14 0 -108 4 -36 9
-85 12 -110 10 -95 11 -96 77 -124 267 -112 559 -33 645 174 30 71 27 206 -6
272 -32 65 -104 132 -209 197 -268 165 -323 211 -359 296 -45 109 -6 264 82
322 66 43 202 45 283 4 69 -36 125 -115 146 -205 6 -28 17 -52 24 -54 10 -3
11 12 7 69 -11 131 -18 174 -28 186 -34 42 -279 76 -371 53z"/>
</g>
</svg>
